<svg width="28" height="27" viewBox="0 0 28 27" fill="none" xmlns="http://www.w3.org/2000/svg">
<path d="M13.7353 19.5381C14.1178 19.5381 14.4387 19.4133 14.6979 19.1637C14.9571 18.9141 15.0862 18.6055 15.0853 18.2381C15.0844 17.8706 14.9548 17.5621 14.6965 17.3125C14.4382 17.0629 14.1178 16.9381 13.7353 16.9381C13.3528 16.9381 13.0324 17.0629 12.7741 17.3125C12.5158 17.5621 12.3862 17.8706 12.3853 18.2381C12.3844 18.6055 12.514 18.9145 12.7741 19.165C13.0342 19.4154 13.3546 19.5398 13.7353 19.5381ZM12.3853 14.3381H15.0853V6.53808H12.3853V14.3381ZM13.7353 26.0381C11.8678 26.0381 10.1128 25.6966 8.47035 25.0137C6.82785 24.3307 5.3991 23.4047 4.1841 22.2356C2.9691 21.0664 2.00745 19.6906 1.29915 18.1081C0.590853 16.5255 0.236253 14.8355 0.235353 13.0381C0.234453 11.2406 0.589053 9.55062 1.29915 7.96808C2.00925 6.38555 2.9709 5.00972 4.1841 3.84058C5.3973 2.67145 6.82605 1.74542 8.47035 1.06249C10.1146 0.379553 11.8696 0.0380859 13.7353 0.0380859C15.601 0.0380859 17.356 0.379553 19.0003 1.06249C20.6446 1.74542 22.0734 2.67145 23.2866 3.84058C24.4998 5.00972 25.4619 6.38555 26.1729 7.96808C26.8839 9.55062 27.238 11.2406 27.2353 13.0381C27.2326 14.8355 26.878 16.5255 26.1715 18.1081C25.465 19.6906 24.5034 21.0664 23.2866 22.2356C22.0698 23.4047 20.641 24.3312 19.0003 25.015C17.3596 25.6988 15.6046 26.0398 13.7353 26.0381ZM13.7353 23.4381C16.7503 23.4381 19.3041 22.4306 21.3966 20.4156C23.4891 18.4006 24.5353 15.9414 24.5353 13.0381C24.5353 10.1347 23.4891 7.67558 21.3966 5.66058C19.3041 3.64558 16.7503 2.63809 13.7353 2.63809C10.7203 2.63809 8.1666 3.64558 6.0741 5.66058C3.9816 7.67558 2.93535 10.1347 2.93535 13.0381C2.93535 15.9414 3.9816 18.4006 6.0741 20.4156C8.1666 22.4306 10.7203 23.4381 13.7353 23.4381Z" fill="#483A5C"/>
</svg>
