<svg width="34" height="34" viewBox="0 0 34 34" fill="none" xmlns="http://www.w3.org/2000/svg">
<g clip-path="url(#clip0_164_167)">
<path d="M12.4293 1.4682C9.14204 2.60857 6.30715 4.77302 4.34098 7.64364C2.37481 10.5143 1.38101 13.9397 1.50554 17.4169C1.63008 20.8941 2.86638 24.2397 5.03287 26.9623C7.19936 29.6849 10.1818 31.641 13.5422 32.5433C16.2665 33.2463 19.1208 33.2771 21.8597 32.6332C24.3409 32.0759 26.6348 30.8838 28.5168 29.1736C30.4756 27.3393 31.8974 25.0058 32.6293 22.424C33.4249 19.6163 33.5665 16.6637 33.0432 13.7929H17.7447V20.139H26.6045C26.4275 21.1511 26.048 22.1171 25.4889 22.9792C24.9298 23.8413 24.2025 24.5817 23.3505 25.1562C22.2686 25.8719 21.0491 26.3534 19.7701 26.5699C18.4873 26.8084 17.1716 26.8084 15.8889 26.5699C14.5888 26.3011 13.3589 25.7645 12.2776 24.9943C10.5405 23.7646 9.2361 22.0177 8.55066 20.0027C7.85363 17.9501 7.85363 15.7247 8.55066 13.672C9.03857 12.2332 9.84516 10.9232 10.9102 9.83971C12.129 8.57704 13.6721 7.67447 15.3701 7.23104C17.0681 6.78761 18.8555 6.82044 20.536 7.32594C21.8489 7.72895 23.0494 8.43307 24.0419 9.38219C25.0409 8.38834 26.0382 7.39192 27.0338 6.39292C27.5478 5.85573 28.1082 5.34423 28.6145 4.79419C27.0995 3.38431 25.3211 2.28725 23.3814 1.56587C19.849 0.283261 15.9839 0.248792 12.4293 1.4682Z" fill="white"/>
<path d="M12.4292 1.4675C15.9835 0.247259 19.8486 0.280821 23.3813 1.5626C25.3214 2.28888 27.0989 3.39122 28.6118 4.80633C28.0978 5.35638 27.5554 5.87044 27.0311 6.40507C26.0338 7.40064 25.0374 8.39278 24.0418 9.38149C23.0493 8.43237 21.8488 7.72824 20.5359 7.32524C18.8559 6.81797 17.0686 6.78323 15.3702 7.22485C13.6717 7.66647 12.1277 8.56737 10.9075 9.82872C9.84248 10.9122 9.0359 12.2222 8.54798 13.6611L3.21973 9.53571C5.12692 5.75365 8.4291 2.86067 12.4292 1.4675Z" fill="#E33629"/>
<path d="M1.80504 13.6229C2.09143 12.2036 2.56689 10.8291 3.21871 9.53613L8.54697 13.6718C7.84994 15.7244 7.84994 17.9498 8.54697 20.0024C6.77174 21.3733 4.99565 22.751 3.21871 24.1355C1.58695 20.8874 1.08929 17.1867 1.80504 13.6229Z" fill="#F8BD00"/>
<path d="M17.7443 13.79H33.0428C33.5661 16.6609 33.4246 19.6135 32.629 22.4211C31.8971 25.003 30.4753 27.3365 28.5165 29.1708C26.7969 27.8291 25.0697 26.4977 23.3502 25.156C24.2027 24.5809 24.9303 23.8397 25.4895 22.9767C26.0486 22.1137 26.4278 21.1466 26.6042 20.1336H17.7443C17.7417 18.0208 17.7443 15.9054 17.7443 13.79Z" fill="#587DBD"/>
<path d="M3.21729 24.135C4.99423 22.7642 6.77031 21.3865 8.54554 20.002C9.23235 22.0176 10.5386 23.7646 12.2776 24.9935C13.3623 25.7601 14.5949 26.2924 15.8966 26.5563C17.1794 26.7948 18.4951 26.7948 19.7778 26.5563C21.0568 26.3398 22.2764 25.8582 23.3583 25.1426C25.0778 26.4843 26.805 27.8157 28.5246 29.1574C26.6428 30.8685 24.3489 32.0616 21.8675 32.6196C19.1286 33.2635 16.2743 33.2326 13.5499 32.5297C11.3953 31.9543 9.38263 30.9402 7.63822 29.5507C5.79187 28.0848 4.28385 26.2375 3.21729 24.135Z" fill="#319F43"/>
</g>
<defs>
<clipPath id="clip0_164_167">
<rect width="32.9" height="32.9" fill="white" transform="translate(0.967773 0.384766)"/>
</clipPath>
</defs>
</svg>
