<svg width="19" height="17" viewBox="0 0 19 17" fill="none" xmlns="http://www.w3.org/2000/svg">
<path d="M1.52123 12.2863C1.21353 12.568 1.04062 12.95 1.04053 13.3484V14.9799C1.04053 15.1791 1.12695 15.3701 1.28079 15.511C1.43463 15.6519 1.64328 15.731 1.86084 15.731H4.32178C4.53934 15.731 4.74799 15.6519 4.90183 15.511C5.05566 15.3701 5.14209 15.1791 5.14209 14.9799V14.2287C5.14209 14.0295 5.22852 13.8385 5.38235 13.6976C5.53619 13.5568 5.74484 13.4776 5.9624 13.4776H6.78272C7.00028 13.4776 7.20893 13.3985 7.36276 13.2576C7.5166 13.1168 7.60303 12.9257 7.60303 12.7265V11.9754C7.60303 11.7761 7.68945 11.5851 7.84329 11.4442C7.99713 11.3034 8.20578 11.2242 8.42334 11.2242H8.56443C8.99952 11.2241 9.41675 11.0658 9.72436 10.7841L10.3921 10.1726C11.5322 10.5363 12.7733 10.5349 13.9124 10.1687C15.0516 9.8025 16.0213 9.09315 16.6629 8.15671C17.3045 7.22027 17.58 6.11217 17.4444 5.01369C17.3088 3.91521 16.7701 2.89139 15.9164 2.1097C15.0627 1.32801 13.9446 0.834743 12.745 0.710586C11.5453 0.586428 10.3351 0.838733 9.31246 1.42623C8.28976 2.01372 7.51508 2.90162 7.11515 3.94467C6.71521 4.98773 6.71369 6.12418 7.11084 7.16813L1.52123 12.2863Z" stroke="black" stroke-width="1.18125" stroke-linecap="round" stroke-linejoin="round"/>
<path d="M12.9351 5.215C13.1616 5.215 13.3452 5.04685 13.3452 4.83943C13.3452 4.63201 13.1616 4.46387 12.9351 4.46387C12.7085 4.46387 12.5249 4.63201 12.5249 4.83943C12.5249 5.04685 12.7085 5.215 12.9351 5.215Z" fill="#6C6C6C" stroke="black" stroke-width="1.18125" stroke-linecap="round" stroke-linejoin="round"/>
</svg>
