<svg width="40" height="40" viewBox="0 0 40 40" fill="none" xmlns="http://www.w3.org/2000/svg">
<path d="M36.875 13.125H3.125C2.62772 13.125 2.15081 12.9275 1.79917 12.5758C1.44754 12.2242 1.25 11.7473 1.25 11.25C1.25 10.7527 1.44754 10.2758 1.79917 9.92417C2.15081 9.57254 2.62772 9.375 3.125 9.375H36.875C37.3723 9.375 37.8492 9.57254 38.2008 9.92417C38.5525 10.2758 38.75 10.7527 38.75 11.25C38.75 11.7473 38.5525 12.2242 38.2008 12.5758C37.8492 12.9275 37.3723 13.125 36.875 13.125ZM30.625 21.875H9.375C8.87772 21.875 8.40081 21.6775 8.04917 21.3258C7.69754 20.9742 7.5 20.4973 7.5 20C7.5 19.5027 7.69754 19.0258 8.04917 18.6742C8.40081 18.3225 8.87772 18.125 9.375 18.125H30.625C31.1223 18.125 31.5992 18.3225 31.9508 18.6742C32.3025 19.0258 32.5 19.5027 32.5 20C32.5 20.4973 32.3025 20.9742 31.9508 21.3258C31.5992 21.6775 31.1223 21.875 30.625 21.875ZM23.125 30.625H16.875C16.3777 30.625 15.9008 30.4275 15.5492 30.0758C15.1975 29.7242 15 29.2473 15 28.75C15 28.2527 15.1975 27.7758 15.5492 27.4242C15.9008 27.0725 16.3777 26.875 16.875 26.875H23.125C23.6223 26.875 24.0992 27.0725 24.4508 27.4242C24.8025 27.7758 25 28.2527 25 28.75C25 29.2473 24.8025 29.7242 24.4508 30.0758C24.0992 30.4275 23.6223 30.625 23.125 30.625Z" fill="#150729"/>
</svg>
