<svg width="40" height="40" viewBox="0 0 40 40" fill="none" xmlns="http://www.w3.org/2000/svg">
<path d="M30.0007 21.6634H21.6673V29.9967C21.6673 30.4388 21.4917 30.8627 21.1792 31.1753C20.8666 31.4878 20.4427 31.6634 20.0007 31.6634C19.5586 31.6634 19.1347 31.4878 18.8221 31.1753C18.5096 30.8627 18.334 30.4388 18.334 29.9967V21.6634H10.0007C9.55862 21.6634 9.1347 21.4878 8.82214 21.1753C8.50958 20.8627 8.33398 20.4388 8.33398 19.9967C8.33398 19.5547 8.50958 19.1308 8.82214 18.8182C9.1347 18.5057 9.55862 18.3301 10.0007 18.3301H18.334V9.99674C18.334 9.55472 18.5096 9.13079 18.8221 8.81823C19.1347 8.50567 19.5586 8.33008 20.0007 8.33008C20.4427 8.33008 20.8666 8.50567 21.1792 8.81823C21.4917 9.13079 21.6673 9.55472 21.6673 9.99674V18.3301H30.0007C30.4427 18.3301 30.8666 18.5057 31.1792 18.8182C31.4917 19.1308 31.6673 19.5547 31.6673 19.9967C31.6673 20.4388 31.4917 20.8627 31.1792 21.1753C30.8666 21.4878 30.4427 21.6634 30.0007 21.6634Z" fill="black"/>
</svg>
