<svg width="14" height="15" viewBox="0 0 14 15" fill="none" xmlns="http://www.w3.org/2000/svg">
<path d="M11.6484 13.8672L7.15625 9.375L2.66406 13.8672C2.42578 14.1055 2.1026 14.2393 1.76562 14.2393C1.42864 14.2393 1.10547 14.1055 0.867188 13.8672C0.628907 13.6289 0.495042 13.3057 0.495043 12.9687C0.495042 12.6318 0.628907 12.3086 0.867187 12.0703L5.35937 7.57812L0.867187 3.08594C0.628907 2.84766 0.495042 2.52448 0.495043 2.1875C0.495043 1.85052 0.628907 1.52734 0.867187 1.28906C1.10547 1.05078 1.42865 0.916918 1.76562 0.916918C2.1026 0.916918 2.42578 1.05078 2.66406 1.28906L7.15625 5.78125L11.6484 1.28906C11.8867 1.05078 12.2099 0.916917 12.5469 0.916917C12.8839 0.916917 13.207 1.05078 13.4453 1.28906C13.6836 1.52734 13.8175 1.85052 13.8175 2.1875C13.8175 2.52448 13.6836 2.84766 13.4453 3.08594L8.95312 7.57812L13.4453 12.0703C13.6836 12.3086 13.8175 12.6318 13.8175 12.9688C13.8175 13.3057 13.6836 13.6289 13.4453 13.8672C13.207 14.1055 12.8839 14.2393 12.5469 14.2393C12.2099 14.2393 11.8867 14.1055 11.6484 13.8672Z" fill="white"/>
</svg>
