<svg width="25" height="25" viewBox="0 0 25 25" fill="none" xmlns="http://www.w3.org/2000/svg">
<path d="M2.69379 18.14C2.30306 18.5306 2.08349 19.0605 2.08337 19.613V21.8755C2.08337 22.1517 2.19312 22.4167 2.38847 22.612C2.58382 22.8074 2.84877 22.9171 3.12504 22.9171H6.25004C6.52631 22.9171 6.79126 22.8074 6.98661 22.612C7.18196 22.4167 7.29171 22.1517 7.29171 21.8755V20.8338C7.29171 20.5575 7.40145 20.2926 7.59681 20.0972C7.79216 19.9019 8.05711 19.7921 8.33337 19.7921H9.37504C9.65131 19.7921 9.91626 19.6824 10.1116 19.487C10.307 19.2917 10.4167 19.0267 10.4167 18.7505V17.7088C10.4167 17.4325 10.5265 17.1676 10.7218 16.9722C10.9172 16.7769 11.1821 16.6671 11.4584 16.6671H11.6375C12.19 16.667 12.7198 16.4474 13.1105 16.0567L13.9584 15.2088C15.4061 15.7131 16.9822 15.7112 18.4287 15.2033C19.8752 14.6955 21.1065 13.7117 21.9212 12.4131C22.736 11.1144 23.0859 9.57772 22.9137 8.05435C22.7415 6.53098 22.0575 5.11113 20.9734 4.02709C19.8894 2.94304 18.4695 2.25898 16.9461 2.08679C15.4228 1.91461 13.8861 2.26451 12.5874 3.07924C11.2888 3.89398 10.305 5.12532 9.79718 6.57183C9.28932 8.01833 9.28739 9.59437 9.79171 11.0421L2.69379 18.14Z" stroke="black" stroke-width="1.5" stroke-linecap="round" stroke-linejoin="round"/>
<path d="M17.1876 8.33366C17.4752 8.33366 17.7084 8.10047 17.7084 7.81283C17.7084 7.52518 17.4752 7.29199 17.1876 7.29199C16.8999 7.29199 16.6667 7.52518 16.6667 7.81283C16.6667 8.10047 16.8999 8.33366 17.1876 8.33366Z" fill="#6C6C6C" stroke="black" stroke-width="1.5" stroke-linecap="round" stroke-linejoin="round"/>
</svg>
