<svg width="24" height="24" viewBox="0 0 30 26" fill="none" xmlns="http://www.w3.org/2000/svg">
    <path d="M18.1929 0.988281C18.9977 0.98806 19.7729 1.25273 20.363 1.72925C20.9531 2.20576 21.3146 2.8589 21.375 3.55773L21.383 3.76606V5.23134L27.1905 6.58689C27.9681 6.76812 28.6383 7.19865 29.0667 7.79213C29.495 8.38562 29.6498 9.09817 29.5001 9.78689L29.4459 9.98828L25.3179 23.4049C25.1095 24.0818 24.6149 24.6651 23.9334 25.0378C23.2518 25.4105 22.4337 25.5451 21.643 25.4147L21.4117 25.3688L20.4754 25.1508C19.9618 25.6091 19.2648 25.9147 18.488 25.9772L18.1929 25.9883H3.83754C3.03272 25.9885 2.25755 25.7238 1.66741 25.2473C1.07728 24.7708 0.715798 24.1177 0.655436 23.4188L0.647461 23.2105V3.76606C0.647206 3.06526 0.951167 2.39027 1.49841 1.87641C2.04565 1.36255 2.79573 1.04779 3.59828 0.995226L3.83754 0.988281H18.1929ZM19 2.98828H2.64746V23.9883L19 24V2.98828ZM21 7V22.6855L23.5 23L27.6475 8.98828L21 7Z"
          fill="black"/>
    <path d="M18.1929 0.988281C18.9977 0.98806 19.7729 1.25273 20.363 1.72925C20.9531 2.20576 21.3146 2.8589 21.375 3.55773L21.383 3.76606V5.23134L27.1905 6.58689C27.9681 6.76812 28.6383 7.19865 29.0667 7.79213C29.495 8.38562 29.6498 9.09817 29.5001 9.78689L29.4459 9.98828L25.3179 23.4049C25.1095 24.0818 24.6149 24.6651 23.9334 25.0378C23.2518 25.4105 22.4337 25.5451 21.643 25.4147L21.4117 25.3688L20.4754 25.1508C19.9618 25.6091 19.2648 25.9147 18.488 25.9772L18.1929 25.9883H3.83754C3.03272 25.9885 2.25755 25.7238 1.66741 25.2473C1.07728 24.7708 0.715798 24.1177 0.655436 23.4188L0.647461 23.2105V3.76606C0.647206 3.06526 0.951167 2.39027 1.49841 1.87641C2.04565 1.36255 2.79573 1.04779 3.59828 0.995226L3.83754 0.988281H18.1929ZM19 2.98828H2.64746V23.9883L19 24V2.98828ZM21 7V22.6855L23.5 23L27.6475 8.98828L21 7Z"
          stroke="black"/>
</svg>
