<svg width="17" height="17" viewBox="0 0 19 19" fill="none" xmlns="http://www.w3.org/2000/svg">
<path d="M15.3926 17.7487L9.5 11.8562L3.60744 17.7487C3.29488 18.0613 2.87096 18.2369 2.42893 18.2369C1.9869 18.2369 1.56298 18.0613 1.25042 17.7487C0.937861 17.4362 0.762265 17.0123 0.762265 16.5702C0.762266 16.1282 0.93786 15.7043 1.25042 15.3917L7.14298 9.49916L1.25042 3.6066C0.93786 3.29404 0.762266 2.87012 0.762265 2.42809C0.762266 1.98606 0.93786 1.56214 1.25042 1.24958C1.56298 0.937019 1.9869 0.761424 2.42893 0.761425C2.87096 0.761424 3.29488 0.937018 3.60744 1.24958L9.5 7.14214L15.3926 1.24958C15.7051 0.937018 16.129 0.761424 16.5711 0.761423C17.0131 0.761424 17.437 0.937018 17.7496 1.24958C18.0621 1.56214 18.2377 1.98606 18.2377 2.42809C18.2377 2.87012 18.0621 3.29404 17.7496 3.6066L11.857 9.49916L17.7496 15.3917C18.0621 15.7043 18.2377 16.1282 18.2377 16.5702C18.2377 17.0123 18.0621 17.4362 17.7496 17.7487C17.437 18.0613 17.0131 18.2369 16.5711 18.2369C16.129 18.2369 15.7051 18.0613 15.3926 17.7487Z" fill="black"/>
</svg>
