<svg width="27" height="27" viewBox="0 0 27 27" fill="none" xmlns="http://www.w3.org/2000/svg">
<path fill-rule="evenodd" clip-rule="evenodd" d="M4 9.4957V19.4785C4 20.1404 4.29099 20.7752 4.80894 21.2432C5.3269 21.7112 6.0294 21.9742 6.7619 21.9742H20.5714C21.3039 21.9742 22.0064 21.7112 22.5244 21.2432C23.0423 20.7752 23.3333 20.1404 23.3333 19.4785V9.4957C23.3333 8.8338 23.0423 8.19901 22.5244 7.73097C22.0064 7.26294 21.3039 7 20.5714 7H6.7619C6.0294 7 5.3269 7.26294 4.80894 7.73097C4.29099 8.19901 4 8.8338 4 9.4957Z" stroke="black" stroke-linecap="round" stroke-linejoin="round"/>
<path d="M6.76196 10.7432L13.6667 14.4867L20.5715 10.7432" stroke="black" stroke-linecap="round" stroke-linejoin="round"/>
</svg>
