<svg width="29" height="28" viewBox="0 0 29 28" fill="none" xmlns="http://www.w3.org/2000/svg">
<path d="M14.5 20.625C14.8896 20.625 15.2164 20.493 15.4804 20.229C15.7444 19.965 15.8759 19.6387 15.875 19.25C15.8741 18.8613 15.7421 18.535 15.479 18.271C15.2159 18.007 14.8896 17.875 14.5 17.875C14.1104 17.875 13.7841 18.007 13.521 18.271C13.2579 18.535 13.1259 18.8613 13.125 19.25C13.1241 19.6387 13.2561 19.9655 13.521 20.2304C13.7859 20.4953 14.1123 20.6268 14.5 20.625ZM13.125 15.125H15.875V6.875H13.125V15.125ZM14.5 27.5C12.5979 27.5 10.8104 27.1388 9.1375 26.4165C7.46459 25.6942 6.00938 24.7147 4.77188 23.4781C3.53438 22.2415 2.55492 20.7863 1.8335 19.1125C1.11209 17.4387 0.750918 15.6512 0.750002 13.75C0.749085 11.8488 1.11025 10.0613 1.8335 8.3875C2.55675 6.71367 3.53621 5.25846 4.77188 4.02188C6.00754 2.78529 7.46275 1.80583 9.1375 1.0835C10.8123 0.361167 12.5998 0 14.5 0C16.4003 0 18.1877 0.361167 19.8625 1.0835C21.5373 1.80583 22.9925 2.78529 24.2281 4.02188C25.4638 5.25846 26.4437 6.71367 27.1679 8.3875C27.892 10.0613 28.2528 11.8488 28.25 13.75C28.2473 15.6512 27.8861 17.4387 27.1665 19.1125C26.4469 20.7863 25.4675 22.2415 24.2281 23.4781C22.9888 24.7147 21.5336 25.6946 19.8625 26.4179C18.1914 27.1411 16.4039 27.5018 14.5 27.5ZM14.5 24.75C17.5708 24.75 20.1719 23.6844 22.3031 21.5531C24.4344 19.4219 25.5 16.8208 25.5 13.75C25.5 10.6792 24.4344 8.07812 22.3031 5.94687C20.1719 3.81562 17.5708 2.75 14.5 2.75C11.4292 2.75 8.82813 3.81562 6.69688 5.94687C4.56563 8.07812 3.5 10.6792 3.5 13.75C3.5 16.8208 4.56563 19.4219 6.69688 21.5531C8.82813 23.6844 11.4292 24.75 14.5 24.75Z" fill="white"/>
</svg>
