<svg width="24" height="24" viewBox="0 0 24 24" fill="none" xmlns="http://www.w3.org/2000/svg">
<path d="M4 21.9996V16.0746C4 15.7413 4.07933 15.4246 4.238 15.1246C4.39667 14.8246 4.61733 14.5829 4.9 14.3996L6 13.6746C6.11667 15.0746 6.3 16.2663 6.55 17.2496C6.8 18.2329 7.19167 19.3246 7.725 20.5246L4 21.9996ZM9.225 19.9996C8.64167 18.8996 8.20833 17.7329 7.925 16.4996C7.64167 15.2663 7.5 13.9913 7.5 12.6746C7.5 10.5913 7.91267 8.62894 8.738 6.78761C9.56333 4.94628 10.6507 3.55028 12 2.59961C13.35 3.54961 14.4377 4.94561 15.263 6.78761C16.0883 8.62961 16.5007 10.5919 16.5 12.6746C16.5 13.9746 16.3583 15.2373 16.075 16.4626C15.7917 17.6879 15.3583 18.8669 14.775 19.9996H9.225ZM12 12.9996C12.55 12.9996 13.021 12.8039 13.413 12.4126C13.805 12.0213 14.0007 11.5503 14 10.9996C13.9993 10.4489 13.8037 9.97828 13.413 9.58761C13.0223 9.19694 12.5513 9.00094 12 8.99961C11.4487 8.99828 10.978 9.19428 10.588 9.58761C10.198 9.98094 10.002 10.4516 10 10.9996C9.998 11.5476 10.194 12.0186 10.588 12.4126C10.982 12.8066 11.4527 13.0023 12 12.9996ZM20 21.9996L16.275 20.5246C16.8083 19.3246 17.2 18.2329 17.45 17.2496C17.7 16.2663 17.8833 15.0746 18 13.6746L19.1 14.3996C19.3833 14.5829 19.6043 14.8246 19.763 15.1246C19.9217 15.4246 20.0007 15.7413 20 16.0746V21.9996Z" fill="black"/>
</svg>
