<svg width="29" height="29" viewBox="0 0 29 29" fill="none" xmlns="http://www.w3.org/2000/svg">
<path fill-rule="evenodd" clip-rule="evenodd" d="M14.5 0.75C6.90611 0.75 0.75 6.90611 0.75 14.5C0.75 22.0938 6.90611 28.25 14.5 28.25C22.0938 28.25 28.25 22.0938 28.25 14.5C28.25 6.90611 22.0939 0.75 14.5 0.75ZM14.5 25.5C8.43462 25.5 3.50002 20.5654 3.50002 14.5C3.50002 8.43455 8.43455 3.50002 14.5 3.50002C20.5654 3.50002 25.5 8.43455 25.5 14.5C25.5 20.5654 20.5654 25.5 14.5 25.5ZM19.6779 9.58743L21.6222 11.5318L13.125 20.0646L8.02785 14.9675L9.97215 13.0231L13.125 16.176L19.6779 9.58743Z" fill="white"/>
</svg>
